<?xml version="1.0" encoding="UTF-8" ?>
<!DOCTYPE svg PUBLIC "-//W3C//DTD SVG 1.1//EN" "http://www.w3.org/Graphics/SVG/1.1/DTD/svg11.dtd">
<svg width="59pt" height="51pt" viewBox="0 0 59 51" version="1.1" xmlns="http://www.w3.org/2000/svg">
<g id="#f38191ff">
<path fill="#f38191" opacity="1.00" d=" M 17.02 0.00 L 23.28 0.00 C 23.22 3.62 23.15 7.24 23.06 10.86 C 23.02 12.43 22.99 14.00 22.95 15.58 C 33.37 5.93 50.81 9.41 56.97 22.12 C 62.13 34.58 53.16 49.75 39.69 51.00 L 35.31 51.00 C 28.42 50.19 23.03 45.56 18.79 40.42 C 18.03 38.07 17.40 35.68 16.75 33.30 C 16.73 29.24 17.02 25.18 16.94 21.13 C 16.97 14.08 17.01 7.04 17.02 0.00 M 24.36 26.95 C 21.86 36.69 31.65 46.44 41.32 43.31 C 48.95 41.36 51.82 32.94 50.78 25.83 C 45.89 14.16 27.85 14.41 24.36 26.95 Z" />
</g>
<g id="#f1d8dcff">
<path fill="#f1d8dc" opacity="1.00" d=" M 23.06 10.86 C 34.49 0.83 53.77 7.31 56.97 22.12 C 50.81 9.41 33.37 5.93 22.95 15.58 C 22.99 14.00 23.02 12.43 23.06 10.86 Z" />
</g>
<g id="#fcbac3ff">
<path fill="#fcbac3" opacity="1.00" d=" M 5.78 12.20 C 7.54 11.38 9.31 10.56 11.08 9.74 C 13.16 13.47 15.36 17.15 16.94 21.13 C 17.02 25.18 16.73 29.24 16.75 33.30 C 16.56 32.98 16.19 32.35 16.01 32.03 C 12.28 25.59 8.90 18.95 5.78 12.20 Z" />
</g>
<g id="#f1d9ddff">
<path fill="#f1d9dd" opacity="1.00" d=" M 2.63 26.01 C 7.11 27.97 11.62 29.86 16.01 32.03 C 16.19 32.35 16.56 32.98 16.75 33.30 C 17.40 35.68 18.03 38.07 18.79 40.42 C 12.64 37.46 6.30 34.88 0.48 31.28 C 1.20 29.53 1.92 27.77 2.63 26.01 Z" />
</g>
<g id="#f1d8ddff">
<path fill="#f1d8dd" opacity="1.00" d=" M 50.78 25.83 C 51.82 32.94 48.95 41.36 41.32 43.31 C 31.65 46.44 21.86 36.69 24.36 26.95 C 22.74 45.07 51.29 42.65 50.78 25.83 Z" />
</g>
</svg>
